# This file uses centimeters as units for non-parametric coordinates.

mtllib imgpic.mtl
g default
v -2.500000 -0.050000 2.500000
v 2.500000 -0.050000 2.500000
v -2.500000 0.050000 2.500000
v 2.500000 0.050000 2.500000
v -2.500000 0.050000 -2.500000
v 2.500000 0.050000 -2.500000
v -2.500000 -0.050000 -2.500000
v 2.500000 -0.050000 -2.500000
v -2.348983 0.046980 2.348983
v 2.348983 0.046980 2.348983
v 2.348984 0.046980 -2.348983
v -2.348983 0.046980 -2.348983
v -2.348983 -0.046980 -2.348983
v 2.348983 -0.046980 -2.348983
v 2.348983 -0.046980 2.348983
v -2.348983 -0.046980 2.348983
vt 0.375000 0.000000
vt 0.625000 0.000000
vt 0.375000 0.250000
vt 0.625000 0.250000
vt 0.375000 0.500000
vt 0.625000 0.500000
vt 0.375000 0.750000
vt 0.625000 0.750000
vt 0.375000 1.000000
vt 0.625000 1.000000
vt 0.875000 0.000000
vt 0.875000 0.250000
vt 0.125000 0.000000
vt 0.125000 0.250000
vt 0.375000 0.250000
vt 0.625000 0.250000
vt 0.625000 0.500000
vt 0.375000 0.500000
vt 0.375000 0.750000
vt 0.625000 0.750000
vt 0.625000 1.000000
vt 0.375000 1.000000
vn 0.000000 0.000003 1.000000
vn 0.000000 0.000003 1.000000
vn 0.000000 0.000003 1.000000
vn 0.000000 0.000003 1.000000
vn 0.000000 0.000001 -1.000000
vn 0.000000 0.000001 -1.000000
vn 0.000000 0.000001 -1.000000
vn 0.000000 0.000001 -1.000000
vn 1.000000 0.000001 0.000000
vn 1.000000 0.000001 0.000000
vn 1.000000 0.000001 0.000000
vn 1.000000 0.000001 0.000000
vn -1.000000 0.000001 0.000000
vn -1.000000 0.000001 0.000000
vn -1.000000 0.000001 0.000000
vn -1.000000 0.000001 0.000000
vn 0.000000 0.999800 -0.019993
vn 0.000000 0.999800 -0.019993
vn 0.000000 0.999800 -0.019993
vn 0.000000 0.999800 -0.019993
vn -0.019993 0.999800 -0.000000
vn -0.019993 0.999800 -0.000000
vn -0.019993 0.999800 -0.000000
vn -0.019993 0.999800 -0.000000
vn 0.000000 0.999800 0.019993
vn 0.000000 0.999800 0.019993
vn 0.000000 0.999800 0.019993
vn 0.000000 0.999800 0.019993
vn 0.019993 0.999800 -0.000000
vn 0.019993 0.999800 -0.000000
vn 0.019993 0.999800 -0.000000
vn 0.019993 0.999800 -0.000000
vn 0.000000 -0.999800 0.019996
vn 0.000000 -0.999800 0.019996
vn 0.000000 -0.999800 0.019996
vn 0.000000 -0.999800 0.019996
vn -0.019996 -0.999800 0.000000
vn -0.019996 -0.999800 0.000000
vn -0.019996 -0.999800 0.000000
vn -0.019996 -0.999800 0.000000
vn 0.000000 -0.999800 -0.019996
vn 0.000000 -0.999800 -0.019996
vn 0.000000 -0.999800 -0.019996
vn 0.000000 -0.999800 -0.019996
vn 0.019996 -0.999800 0.000000
vn 0.019996 -0.999800 0.000000
vn 0.019996 -0.999800 0.000000
vn 0.019996 -0.999800 0.000000
s off
g pCube1
usemtl initialShadingGroup
f 1/1/1 2/2/2 4/4/3 3/3/4
f 5/5/5 6/6/6 8/8/7 7/7/8
f 2/2/9 8/11/10 6/12/11 4/4/12
f 7/13/13 1/1/14 3/3/15 5/14/16
f 3/3/17 4/4/18 10/16/19 9/15/20
f 4/4/21 6/6/22 11/17/23 10/16/24
f 6/6/25 5/5/26 12/18/27 11/17/28
f 5/5/29 3/3/30 9/15/31 12/18/32
f 7/7/33 8/8/34 14/20/35 13/19/36
f 8/8/37 2/10/38 15/21/39 14/20/40
f 2/10/41 1/9/42 16/22/43 15/21/44
f 1/9/45 7/7/46 13/19/47 16/22/48
